<svg width="16" height="16" xmlns="http://www.w3.org/2000/svg">
 <title/>
 <defs>
  <filter id="Icons with numbers_blur">
   <feGaussianBlur stdDeviation="0.6" in="SourceGraphic"/>
  </filter>
  <filter id="Icons with numbers_blur">
   <feGaussianBlur stdDeviation="0.6" in="SourceGraphic"/>
  </filter>
  <filter id="Icons with numbers_blur">
   <feGaussianBlur stdDeviation="1.1" in="SourceGraphic"/>
  </filter>
  <filter id="Icons with numbers_blur">
   <feGaussianBlur stdDeviation="1.7" in="SourceGraphic"/>
  </filter>
  <filter height="200%" width="200%" y="-50%" x="-50%" id="Icons with numbers_blur">
   <feGaussianBlur stdDeviation="5.5" in="SourceGraphic"/>
  </filter>
 </defs>
 <g>
  <title>background</title>
  <rect fill="none" id="canvas_background" height="402" width="582" y="-1" x="-1"/>
 </g>
 <g>
  <title>Layer 1</title>
  <g filter="url(#Icons with numbers_blur)" id="Icons with numbers" fill-rule="evenodd" fill="none">
   <g stroke="null" id="Group" fill="#000000">
    <path stroke="null" stroke-width="14" id="Shape" d="m14.185566,5.987113l0,2.94201c0,1.96134 -2.526918,3.92268 -5.053837,3.92268l0,1.96134l3.790378,0l0,0.98067l-8.844214,0l0,-0.98067l3.790378,0l0,-1.96134c-2.526918,0 -5.053837,-1.96134 -5.053837,-3.92268l0,-2.94201l1.263459,0l0,2.94201c0,1.471005 1.895189,2.94201 3.790378,2.94201l1.263459,0c1.895189,0 3.790378,-1.471005 3.790378,-2.94201l0,-2.94201l1.263459,0zm-6.31113,-5.88402l1.251128,0c1.403678,0 2.533084,0.87462 2.533084,1.953514l0,6.880342c0,1.070735 -1.134106,1.953514 -2.533084,1.953514l-1.251128,0c-1.403678,0 -2.533084,-0.87462 -2.533084,-1.953514l0,-6.880342c0,-1.070735 1.134106,-1.953514 2.533084,-1.953514zm0,0"/>
   </g>
  </g>
 </g>
</svg>