<?xml version="1.0" encoding="UTF-8" standalone="no"?>
<svg
   xmlns:dc="http://purl.org/dc/elements/1.1/"
   xmlns:cc="http://creativecommons.org/ns#"
   xmlns:rdf="http://www.w3.org/1999/02/22-rdf-syntax-ns#"
   xmlns:svg="http://www.w3.org/2000/svg"
   xmlns="http://www.w3.org/2000/svg"
   xmlns:sodipodi="http://sodipodi.sourceforge.net/DTD/sodipodi-0.dtd"
   xmlns:inkscape="http://www.inkscape.org/namespaces/inkscape"
   height="32"
   id="speaker-volume"
   viewBox="0 0 32 32"
   width="32"
   version="1.1"
   inkscape:version="0.91 r13725"
   sodipodi:docname="speaker.svg">
  <metadata
     id="metadata3390">
    <rdf:RDF>
      <cc:Work
         rdf:about="">
        <dc:format>image/svg+xml</dc:format>
        <dc:type
           rdf:resource="http://purl.org/dc/dcmitype/StillImage" />
        <dc:title></dc:title>
      </cc:Work>
    </rdf:RDF>
  </metadata>
  <defs
     id="defs3388">
    <filter
       style="color-interpolation-filters:sRGB;"
       inkscape:label="Invert"
       id="filter3392">
      <feColorMatrix
         values="-1 0 0 0 1 0 0 -1 0 1 0 -1 0 0 1 -0.21 -0.72 -0.07 2 0 "
         result="color2"
         id="feColorMatrix3394" />
    </filter>
  </defs>
  <sodipodi:namedview
     pagecolor="#ffffff"
     bordercolor="#666666"
     borderopacity="1"
     objecttolerance="10"
     gridtolerance="10"
     guidetolerance="10"
     inkscape:pageopacity="0"
     inkscape:pageshadow="2"
     inkscape:window-width="1855"
     inkscape:window-height="1056"
     id="namedview3386"
     showgrid="false"
     inkscape:zoom="52.78125"
     inkscape:cx="16"
     inkscape:cy="16"
     inkscape:window-x="65"
     inkscape:window-y="24"
     inkscape:window-maximized="1"
     inkscape:current-layer="speaker-volume" />
  <path
     d=" M2 12 L8 12 L16 6 L16 26 L8 20 L2 20 z M32 16 A16 16 0 0 1 27.25 27.375 L25.25 25.25 A13 13 0 0 0 29 16 A13 13 0 0 0 25.25 6.75 L27.25 4.625 A16 16 0 0 1 32 16 M25 16 A9 9 0 0 1 22.375 22.375 L20.25 20.25 A6 6 0 0 0 22 16 A6 6 0 0 0 20.25 11.75 L22.375 9.625 A9 9 0 0 1 25 16 "
     id="path3384"
     style="filter:url(#filter3392)" />
</svg>
